<svg width="84" height="75" viewBox="0 0 84 75" fill="none" xmlns="http://www.w3.org/2000/svg">
<g filter="url(#filter0_d_133_4915)">
<path d="M40.4571 45.1293C41.2571 46.0992 42.7429 46.0992 43.5429 45.1293L47.9611 39.7726C49.037 38.4681 48.1091 36.5 46.4182 36.5H37.5818C35.8909 36.5 34.963 38.4681 36.0389 39.7726L40.4571 45.1293Z" fill="#141522"/>
</g>
<rect width="84" height="40" rx="10" fill="#141522"/>
<path d="M23.0836 26V24.81L25.9396 21.758C26.4996 21.1607 26.9383 20.68 27.2556 20.316C27.5823 19.9427 27.8156 19.616 27.9556 19.336C28.1049 19.056 28.1796 18.762 28.1796 18.454C28.1796 17.95 28.0256 17.5627 27.7176 17.292C27.4096 17.012 27.0129 16.872 26.5276 16.872C26.0236 16.872 25.5896 17.0167 25.2256 17.306C24.8616 17.586 24.6096 17.9967 24.4696 18.538L23.0136 18.118C23.1256 17.5673 23.3496 17.0913 23.6856 16.69C24.0216 16.2793 24.4323 15.962 24.9176 15.738C25.4123 15.514 25.9443 15.402 26.5136 15.402C27.1763 15.402 27.7549 15.528 28.2496 15.78C28.7443 16.0227 29.1269 16.3633 29.3976 16.802C29.6776 17.2407 29.8176 17.7493 29.8176 18.328C29.8176 18.7107 29.7429 19.084 29.5936 19.448C29.4536 19.8027 29.2343 20.1807 28.9356 20.582C28.6369 20.974 28.2543 21.4173 27.7876 21.912L25.2676 24.6H30.0136V26H23.0836ZM35.564 26V17.04H32.792V15.57H39.932V17.04H37.202V26H35.564ZM42.1672 26.168C41.6539 26.168 41.2012 26.0793 40.8092 25.902C40.4266 25.7153 40.1279 25.4633 39.9132 25.146C39.6986 24.8193 39.5912 24.4367 39.5912 23.998C39.5912 23.5873 39.6799 23.2187 39.8572 22.892C40.0439 22.5653 40.3286 22.29 40.7112 22.066C41.0939 21.842 41.5746 21.6833 42.1532 21.59L44.7852 21.156V22.402L42.4612 22.808C42.0412 22.8827 41.7332 23.018 41.5372 23.214C41.3412 23.4007 41.2432 23.6433 41.2432 23.942C41.2432 24.2313 41.3506 24.4693 41.5652 24.656C41.7892 24.8333 42.0739 24.922 42.4192 24.922C42.8486 24.922 43.2219 24.8287 43.5392 24.642C43.8659 24.4553 44.1179 24.208 44.2952 23.9C44.4726 23.5827 44.5612 23.2327 44.5612 22.85V20.904C44.5612 20.5307 44.4212 20.2273 44.1412 19.994C43.8706 19.7513 43.5066 19.63 43.0492 19.63C42.6292 19.63 42.2606 19.742 41.9432 19.966C41.6352 20.1807 41.4066 20.4607 41.2572 20.806L39.9412 20.148C40.0812 19.7747 40.3099 19.448 40.6272 19.168C40.9446 18.8787 41.3132 18.6547 41.7332 18.496C42.1626 18.3373 42.6152 18.258 43.0912 18.258C43.6886 18.258 44.2159 18.37 44.6732 18.594C45.1399 18.818 45.4992 19.1307 45.7512 19.532C46.0126 19.924 46.1432 20.3813 46.1432 20.904V26H44.6312V24.628L44.9532 24.67C44.7759 24.978 44.5472 25.244 44.2672 25.468C43.9966 25.692 43.6839 25.8647 43.3292 25.986C42.9839 26.1073 42.5966 26.168 42.1672 26.168ZM50.513 26.168C49.7383 26.168 49.057 25.9767 48.469 25.594C47.8903 25.2113 47.4843 24.698 47.251 24.054L48.469 23.48C48.6743 23.9093 48.9543 24.25 49.309 24.502C49.673 24.754 50.0743 24.88 50.513 24.88C50.8863 24.88 51.1897 24.796 51.423 24.628C51.6563 24.46 51.773 24.2313 51.773 23.942C51.773 23.7553 51.7217 23.606 51.619 23.494C51.5163 23.3727 51.3857 23.2747 51.227 23.2C51.0777 23.1253 50.9237 23.0693 50.765 23.032L49.575 22.696C48.9217 22.5093 48.4317 22.2293 48.105 21.856C47.7877 21.4733 47.629 21.03 47.629 20.526C47.629 20.0687 47.7457 19.672 47.979 19.336C48.2123 18.9907 48.5343 18.7247 48.945 18.538C49.3557 18.3513 49.8177 18.258 50.331 18.258C51.0217 18.258 51.6377 18.4307 52.179 18.776C52.7203 19.112 53.103 19.5833 53.327 20.19L52.109 20.764C51.9597 20.4 51.7217 20.1107 51.395 19.896C51.0777 19.6813 50.7183 19.574 50.317 19.574C49.9717 19.574 49.6963 19.658 49.491 19.826C49.2857 19.9847 49.183 20.1947 49.183 20.456C49.183 20.6333 49.2297 20.7827 49.323 20.904C49.4163 21.016 49.5377 21.1093 49.687 21.184C49.8363 21.2493 49.9903 21.3053 50.149 21.352L51.381 21.716C52.0063 21.8933 52.487 22.1733 52.823 22.556C53.159 22.9293 53.327 23.3773 53.327 23.9C53.327 24.348 53.2057 24.7447 52.963 25.09C52.7297 25.426 52.403 25.692 51.983 25.888C51.563 26.0747 51.073 26.168 50.513 26.168ZM54.597 26V15.402H56.179V22.5L55.5631 22.346L59.3571 18.426H61.3311L58.4751 21.464L61.4571 26H59.6371L56.9771 21.982L57.915 21.856L55.6751 24.236L56.179 23.186V26H54.597Z" fill="white"/>
<defs>
<filter id="filter0_d_133_4915" x="10.5781" y="15.5" width="62.8438" height="59.3568" filterUnits="userSpaceOnUse" color-interpolation-filters="sRGB">
<feFlood flood-opacity="0" result="BackgroundImageFix"/>
<feColorMatrix in="SourceAlpha" type="matrix" values="0 0 0 0 0 0 0 0 0 0 0 0 0 0 0 0 0 0 127 0" result="hardAlpha"/>
<feOffset dy="4"/>
<feGaussianBlur stdDeviation="12.5"/>
<feColorMatrix type="matrix" values="0 0 0 0 0 0 0 0 0 0 0 0 0 0 0 0 0 0 0.1 0"/>
<feBlend mode="normal" in2="BackgroundImageFix" result="effect1_dropShadow_133_4915"/>
<feBlend mode="normal" in="SourceGraphic" in2="effect1_dropShadow_133_4915" result="shape"/>
</filter>
</defs>
</svg>
