<svg width="72" height="72" viewBox="0 0 72 72" fill="none" xmlns="http://www.w3.org/2000/svg">
<path opacity="0.1" fill-rule="evenodd" clip-rule="evenodd" d="M36 70C54.7777 70 70 54.7777 70 36C70 17.2223 54.7777 2 36 2C17.2223 2 2 17.2223 2 36C2 54.7777 17.2223 70 36 70Z" stroke="#546FFF" stroke-width="3"/>
<path d="M48.2448 67.7283C60.972 62.8133 70 50.4609 70 36C70 17.2223 54.7777 2 36 2" stroke="#546FFF" stroke-width="3" stroke-linecap="round" stroke-linejoin="round"/>
<path d="M23.4544 43V39.904H16.8664V38.446L23.4184 29.59H25.1104V38.446H26.8564V39.904H25.1104V43H23.4544ZM18.1984 39.076L17.9464 38.446H23.4544V31.066L23.9764 31.21L18.1984 39.076ZM32.6109 43.216C31.9149 43.216 31.2609 43.096 30.6489 42.856C30.0369 42.604 29.5029 42.25 29.0469 41.794C28.6029 41.326 28.2789 40.78 28.0749 40.156L29.5149 39.544C29.7669 40.204 30.1749 40.72 30.7389 41.092C31.3149 41.452 31.9389 41.632 32.6109 41.632C33.1629 41.632 33.6489 41.512 34.0689 41.272C34.5009 41.02 34.8369 40.678 35.0769 40.246C35.3169 39.802 35.4369 39.31 35.4369 38.77C35.4369 38.206 35.3109 37.708 35.0589 37.276C34.8189 36.844 34.4889 36.508 34.0689 36.268C33.6489 36.016 33.1689 35.89 32.6289 35.89C32.0769 35.89 31.5729 36.016 31.1169 36.268C30.6609 36.52 30.3309 36.838 30.1269 37.222L28.7049 36.916L29.7309 29.59H36.6789V31.12H30.3969L31.0809 30.436L30.2889 36.124L29.6769 35.764C30.0729 35.26 30.5349 34.9 31.0629 34.684C31.6029 34.456 32.1849 34.342 32.8089 34.342C33.6849 34.342 34.4529 34.54 35.1129 34.936C35.7729 35.332 36.2889 35.86 36.6609 36.52C37.0329 37.18 37.2189 37.93 37.2189 38.77C37.2189 39.61 37.0149 40.366 36.6069 41.038C36.2109 41.71 35.6649 42.244 34.9689 42.64C34.2849 43.024 33.4989 43.216 32.6109 43.216ZM40.5167 43L51.4607 29.59H53.4587L42.5147 43H40.5167ZM42.5327 36.394C41.8727 36.394 41.2787 36.238 40.7507 35.926C40.2227 35.602 39.7967 35.176 39.4727 34.648C39.1607 34.12 39.0047 33.532 39.0047 32.884C39.0047 32.236 39.1607 31.648 39.4727 31.12C39.7967 30.58 40.2227 30.154 40.7507 29.842C41.2787 29.53 41.8727 29.374 42.5327 29.374C43.1807 29.374 43.7687 29.53 44.2967 29.842C44.8247 30.154 45.2447 30.58 45.5567 31.12C45.8687 31.648 46.0247 32.236 46.0247 32.884C46.0247 33.532 45.8687 34.12 45.5567 34.648C45.2447 35.176 44.8247 35.602 44.2967 35.926C43.7687 36.238 43.1807 36.394 42.5327 36.394ZM42.5147 34.918C42.9227 34.918 43.2707 34.822 43.5587 34.63C43.8467 34.438 44.0747 34.186 44.2427 33.874C44.4107 33.562 44.4947 33.232 44.4947 32.884C44.4947 32.524 44.4107 32.194 44.2427 31.894C44.0747 31.582 43.8467 31.33 43.5587 31.138C43.2707 30.934 42.9227 30.832 42.5147 30.832C42.1307 30.832 41.7887 30.934 41.4887 31.138C41.1887 31.33 40.9547 31.582 40.7867 31.894C40.6187 32.206 40.5347 32.536 40.5347 32.884C40.5347 33.22 40.6187 33.55 40.7867 33.874C40.9547 34.186 41.1887 34.438 41.4887 34.63C41.7887 34.822 42.1307 34.918 42.5147 34.918ZM51.3347 43.216C50.6747 43.216 50.0807 43.06 49.5527 42.748C49.0247 42.424 48.5987 41.998 48.2747 41.47C47.9627 40.942 47.8067 40.354 47.8067 39.706C47.8067 39.058 47.9627 38.47 48.2747 37.942C48.5987 37.402 49.0247 36.976 49.5527 36.664C50.0807 36.352 50.6747 36.196 51.3347 36.196C51.9827 36.196 52.5707 36.352 53.0987 36.664C53.6267 36.976 54.0467 37.402 54.3587 37.942C54.6707 38.47 54.8267 39.058 54.8267 39.706C54.8267 40.354 54.6707 40.942 54.3587 41.47C54.0467 41.998 53.6267 42.424 53.0987 42.748C52.5707 43.06 51.9827 43.216 51.3347 43.216ZM51.3347 41.74C51.7307 41.74 52.0727 41.644 52.3607 41.452C52.6607 41.26 52.8887 41.008 53.0447 40.696C53.2127 40.384 53.2967 40.054 53.2967 39.706C53.2967 39.346 53.2127 39.016 53.0447 38.716C52.8887 38.404 52.6607 38.152 52.3607 37.96C52.0727 37.756 51.7307 37.654 51.3347 37.654C50.9507 37.654 50.6027 37.756 50.2907 37.96C49.9907 38.152 49.7567 38.404 49.5887 38.716C49.4207 39.028 49.3367 39.358 49.3367 39.706C49.3367 40.042 49.4207 40.372 49.5887 40.696C49.7567 41.008 49.9907 41.26 50.2907 41.452C50.6027 41.644 50.9507 41.74 51.3347 41.74Z" fill="white"/>
</svg>
